<?xml version="1.0" encoding="UTF-8" standalone="no"?>
<!-- Created with Inkscape (http://www.inkscape.org/) -->

<svg
   xmlns:dc="http://purl.org/dc/elements/1.1/"
   xmlns:cc="http://creativecommons.org/ns#"
   xmlns:rdf="http://www.w3.org/1999/02/22-rdf-syntax-ns#"
   xmlns:svg="http://www.w3.org/2000/svg"
   xmlns="http://www.w3.org/2000/svg"
   xmlns:sodipodi="http://sodipodi.sourceforge.net/DTD/sodipodi-0.dtd"
   xmlns:inkscape="http://www.inkscape.org/namespaces/inkscape"
   width="1280"
   height="1280"
   id="svg6645"
   version="1.1"
   inkscape:version="0.48.2 r9819"
   sodipodi:docname="Bus.svg"
   inkscape:export-filename="/Users/benoit/Desktop/Bus-58.png"
   inkscape:export-xdpi="4.0799999"
   inkscape:export-ydpi="4.0799999">
  <defs
     id="defs6647" />
  <sodipodi:namedview
     pagecolor="#ffffff"
     bordercolor="#666666"
     borderopacity="1.0"
     inkscape:pageopacity="0.0"
     inkscape:pageshadow="2"
     inkscape:zoom="0.40000002"
     inkscape:cx="207.56591"
     inkscape:cy="579.538"
     inkscape:document-units="pt"
     inkscape:current-layer="layer1"
     id="namedview6649"
     showgrid="false"
     inkscape:window-width="1301"
     inkscape:window-height="880"
     inkscape:window-x="39"
     inkscape:window-y="49"
     inkscape:window-maximized="0"
     units="pt"
     width="1024pt"
     fit-margin-top="0"
     fit-margin-left="0"
     fit-margin-right="0"
     fit-margin-bottom="0" />
  <metadata
     id="metadata6651">
    <rdf:RDF>
      <cc:Work
         rdf:about="">
        <dc:format>image/svg+xml</dc:format>
        <dc:type
           rdf:resource="http://purl.org/dc/dcmitype/StillImage" />
        <dc:title></dc:title>
      </cc:Work>
    </rdf:RDF>
  </metadata>
  <g
     inkscape:groupmode="layer"
     id="layer2"
     inkscape:label="Background">
    <rect
       style="fill:#45e7bb;fill-opacity:1;stroke:#45e7bb;stroke-width:2.24375057;stroke-miterlimit:4;stroke-opacity:1;stroke-dasharray:none"
       id="rect6831"
       width="1277.7562"
       height="1277.7562"
       x="0.88388395"
       y="-850.9884"
       inkscape:export-xdpi="214.74696"
       inkscape:export-ydpi="214.74696"
       transform="translate(0.2381165,852.11025)"
       sodipodi:insensitive="true" />
  </g>
  <g
     inkscape:label="Bus"
     inkscape:groupmode="layer"
     id="layer1"
     transform="translate(0.2381165,852.11025)">
    <g
       id="g3052"
       transform="matrix(6.0786694,0,0,-5.7778638,-949.85009,3491.853)" />
    <path
       style="fill:#000000;fill-opacity:1;stroke:#000000;stroke-width:2.24399996;stroke-miterlimit:4;stroke-dasharray:none"
       d="m 713.71412,-634.26435 c 5.99794,8.87114 11.54227,18.01181 16.53953,27.42872 l 10.46013,0 c 51.43272,0 53.2737,0.0878 61.15154,4.55657 4.81717,2.73253 10.73714,8.93632 13.14221,13.75903 9.79924,19.65076 -2.84895,42.89992 -25.301,46.45908 -2.58404,0.40965 -17.80736,0.76008 -34.24129,0.80411 1.83475,7.31557 3.399,14.68682 4.64895,22.15741 l 76.52883,0.2679 c 89.33689,0.34319 111.76398,0.62795 114.52503,1.51885 13.77877,4.44603 24.40122,14.81553 28.2513,27.51808 1.2282,4.05251 1.34104,19.4371 1.34104,151.97482 0,132.53774 -0.11272,148.01166 -1.34104,152.06417 -4.61078,15.21228 -18.2227,26.16665 -35.31412,28.50087 l -3.66551,0.53607 -0.17881,-42.52794 -0.26807,-42.61728 -2.05626,-4.55656 c -2.56293,-5.5994 -7.61956,-12.98245 -10.90715,-15.90331 -7.26858,-6.45781 -16.56627,-10.80307 -26.28444,-12.32953 -3.38148,-0.53115 -34.0204,-0.80873 -82.1612,-0.80409 -84.82432,0.005 -82.22025,-0.19071 -93.42597,5.27131 -10.77548,5.25242 -18.88914,14.34715 -23.42354,25.99922 -1.82816,4.69789 -1.96016,5.94628 -2.23507,46.10172 l -0.26807,41.36646 -21.36727,0 -21.45668,0 0,-67.45503 0,-26.44594 c -12.36087,10.4398 -24.9002,19.7713 -37.728,27.96479 l 0,15.00986 0,50.92632 -145.63721,-0.17869 c -144.76783,-0.22014 -145.6921,-0.26103 -150.46498,-1.96558 -11.35076,-4.05395 -19.81143,-11.2186 -24.49638,-20.7279 -3.47289,-7.04906 -4.3716,-11.75841 -4.55953,-25.5525 -10.29913,-4.93727 -20.37933,-10.344 -30.03936,-16.26069 l 0,17.33282 5.54297,0 5.63238,0 0,4.19919 0,4.10984 -5.63238,0 -5.54297,0 0,28.67956 0,28.59021 374.06147,0 374.0615,0 0,-28.59021 0,-28.67956 -4.7384,0 -4.6489,0 0,-4.10984 0,-4.19919 4.7383,0 4.7384,0 -0.2681,-185.38963 -0.2681,-185.38964 -1.8774,-6.70083 c -8.0683,-27.83948 -31.55008,-47.94786 -60.52575,-51.81974 -4.56804,-0.61042 -49.34933,-0.89345 -140.09424,-0.89345 l -94.94582,0 z m 313.80398,187.44455 0,202.00769 26.7314,0 0,42.52793 -49.6185,0 0,4.64591 54.0887,0 0,-0.17869 0.3576,0 0,-46.99515 29.1453,0 0,-202.00769 -60.7045,0 z m -838.24101,162.87484 0,39.13285 29.05593,0 0,46.99515 0.44701,0 0,0.17869 53.9993,0 0,-4.64591 -49.52916,0 0,-42.52793 6.97342,0 c -14.76995,-11.81204 -28.49244,-24.89027 -40.9465,-39.13285 z m 559.84055,89.79112 3.93373,0 c 3.25189,0 3.82576,0.25932 3.39731,1.34017 -0.28661,0.72253 -0.53642,9.11827 -0.53642,18.67298 l 0,17.42216 -3.3973,0 -3.39732,0 0,-18.76233 0,-18.67298 z m 133.83605,0 3.84432,0 3.93373,0 -0.26807,18.49429 -0.26806,18.4943 -3.57612,0.26789 -3.66552,0.26789 0,-18.76233 0,-18.76232 z m -619.47225,57.62715 0,138.483819 c 0,150.892341 -0.17994,142.686901 3.39731,153.046951 4.38944,12.71227 13.61944,25.31418 24.13877,32.96809 l 3.57611,2.59099 342.77047,0 342.85987,0 3.39731,-2.50165 c 10.93944,-7.98078 19.71452,-20.02692 24.31762,-33.32546 3.7748,-10.90599 3.5697,-3.52491 3.5761,-154.02974196 l 0,-137.23299804 -373.97209,0 -374.06147,0 z M 438.26399,-30.2962 c 47.4428,-3.72e-4 94.83097,0.26646 97.35968,0.714756 7.68395,1.362437 15.4317,7.187977 17.70176,13.491004 1.02238,2.838922 1.07284,5.541811 1.07284,32.789395 l 0,29.662348 -1.60925,3.21639 c -3.43496,6.76762 -9.98703,11.15502 -18.41699,12.32953 -5.29135,0.73723 -187.65775,0.73943 -192.93131,0 -5.24562,-0.73545 -10.52377,-3.51162 -14.12565,-7.32624 -5.12638,-5.4292 -5.01978,-4.47706 -4.82776,-39.400883 l 0.17881,-30.466441 1.43044,-2.859021 c 2.9465,-5.582666 9.76523,-10.191951 16.71834,-11.436082 2.50594,-0.44841 50.00628,-0.714384 97.44909,-0.714756 z m 340.7142,0.0892 c 14.36462,-0.01716 33.65978,0.04688 59.54229,0.0892 l 96.28685,0.0892 3.48672,1.429511 c 4.29482,1.678588 9.12054,5.206191 11.08594,8.219684 3.34053,5.122194 3.40693,6.230493 3.2185,38.06072 l -0.1788,29.304958 -1.69866,3.39508 c -3.16076,6.23023 -9.78607,10.39718 -18.32757,11.61478 -4.42483,0.63069 -188.11364,0.54384 -192.3949,-0.0892 -7.93973,-1.17413 -14.55076,-5.49065 -17.61236,-11.52542 l -1.69865,-3.39509 0,-30.823813 0,-30.823819 1.78805,-3.484432 c 1.89348,-3.620779 5.78092,-7.328843 9.5661,-9.202473 4.5187,-2.236755 3.8427,-2.812763 46.93649,-2.859021 z M 637.2747,192.34991 c -61.57973,0 -123.20509,0.0469 -169.86539,0.0892 l -169.68658,0.1787 6.437,3.03771 c 10.38352,4.96277 20.67738,7.23689 32.72144,7.23689 l 6.61582,0 0.17879,34.21891 c 0.23059,31.91593 0.35611,34.55901 1.51986,39.49022 1.57795,6.68568 3.40643,11.75364 6.07939,16.97544 11.79508,23.04239 35.68909,39.01222 62.04556,41.4558 6.97148,0.6464 8.46861,0.66235 15.28788,0 30.66733,-2.97875 56.40568,-22.64185 65.9793,-50.3009 3.5187,-10.16579 3.66552,-12.35148 3.66552,-48.6927 l 0,-33.14677 139.28962,0 139.1108,0 0.26807,34.75497 c 0.24118,37.34777 0.22515,37.52489 3.57611,47.0845 7.81401,22.2921 27.10987,40.38979 50.4232,47.26319 20.90379,6.16299 45.14761,3.44415 63.20781,-7.14755 15.60487,-9.1517 27.91311,-23.84775 33.61547,-40.11564 3.3646,-9.5987 3.34412,-9.7128 3.57611,-46.99516 l 0.1788,-34.66563 8.94029,-0.35737 c 12.84471,-0.48328 20.18316,-2.25371 31.11219,-7.41559 l 5.72178,-2.68032 -170.1336,-0.1787 c -46.77105,-0.0406 -108.28565,-0.0892 -169.86539,-0.0892 z"
       id="path6543"
       inkscape:connector-curvature="0" />
    <path
       style="fill:#000000;fill-opacity:1;stroke:#000000;stroke-width:2.24399996;stroke-miterlimit:4;stroke-dasharray:none"
       d="m 810.83699,-321.7769 c -21.10285,-4.47551 -37.42258,-19.03518 -43.20066,-38.54149 -1.18587,-4.00345 -1.38982,-6.04353 -1.37963,-13.80017 0.0114,-8.34628 0.15477,-9.54081 1.73286,-14.38323 3.01733,-9.25933 7.40963,-16.32607 14.17294,-22.80274 10.63454,-10.1838 22.94161,-15.42302 37.77492,-16.08116 27.61838,-1.22538 51.88239,17.0642 57.35966,43.23625 1.62309,7.75572 1.01447,18.59813 -1.45302,25.88641 -5.97457,17.64681 -20.77582,31.17922 -39.22247,35.86012 -7.04792,1.78841 -18.94219,2.07722 -25.7846,0.62601 z"
       id="path6549"
       inkscape:connector-curvature="0" />
    <rect
       style="fill:#45e7bb;fill-opacity:1;stroke:#45e7bb;stroke-width:2.24399996;stroke-miterlimit:4;stroke-opacity:1;stroke-dasharray:none"
       id="rect6810"
       width="0.44701418"
       height="26.80332"
       x="887.18103"
       y="200.69955"
       transform="scale(1,-1)" />
    <rect
       style="fill:#45e7bb;fill-opacity:1;stroke:#45e7bb;stroke-width:2.24399996;stroke-miterlimit:4;stroke-opacity:1;stroke-dasharray:none"
       id="rect6810-1"
       width="0.44701418"
       height="26.80332"
       x="753.30029"
       y="200.69955"
       transform="scale(1,-1)" />
    <path
       inkscape:connector-curvature="0"
       style="fill:#000000;fill-opacity:1;stroke:#000000;stroke-width:2.24399996;stroke-miterlimit:4;stroke-dasharray:none"
       d="m 438.37968,-721.7919 c -10.82718,-0.0453 -21.20787,0.46069 -30.09906,1.53576 -96.41179,11.65762 -175.87289,70.3702 -211.07795,155.94923 -24.47564,59.49701 -20.20547,132.34641 11.10682,189.68933 40.93841,74.97156 117.62294,124.52871 206.75067,133.65748 14.31964,1.46662 47.23039,0.30752 64.52541,-2.28038 58.42372,-8.74225 103.46011,-30.83657 147.41804,-72.32022 33.54572,-31.65757 58.35081,-75.73661 67.31416,-119.69599 26.48501,-129.89215 -64.4916,-256.3234 -202.9041,-281.97447 -15.67496,-2.90493 -34.98863,-4.4852 -53.03399,-4.56074 z m 2.64447,35.88089 c 53.30826,-0.23136 104.03154,17.49295 145.39861,51.09885 28.58434,23.22137 51.82822,56.59258 63.61188,91.35432 12.75225,37.61896 12.89701,86.4494 0.38468,123.46563 -25.1262,74.33285 -92.40306,128.30493 -175.97845,141.15003 -15.83649,2.434 -47.07373,2.99414 -62.07332,1.11696 -53.20745,-6.65891 -104.86384,-32.32572 -138.23445,-68.69029 -23.62421,-25.74374 -38.54705,-52.728 -48.75465,-88.05007 -1.56751,-5.42413 -2.3624,-8.27043 -2.76465,-14.10249 -0.40223,-5.83206 -3.46085,-14.64982 -3.45777,-32.01678 0.005,-19.45603 3.15741,-29.95988 4.26676,-38.41631 1.10939,-8.45647 3.22323,-14.86555 7.24459,-26.13206 25.09411,-70.30534 88.99065,-123.26226 165.35246,-137.00821 5.47188,-0.98498 18.22548,-2.36827 28.36809,-3.11804 5.56188,-0.41115 11.12159,-0.62761 16.63622,-0.65154 z m 99.86542,58.31226 c -0.0984,0.11407 -22.01369,30.25279 -48.65854,67.01489 -26.64482,36.76208 -48.8603,67.29513 -49.37975,67.80601 -0.87235,0.8579 -3.38277,-1.58135 -32.83973,-31.87857 -17.54216,-18.04265 -33.10698,-34.01776 -34.61867,-35.46206 l -2.78874,-2.60614 -9.6644,8.93532 c -5.3281,4.91733 -9.71247,9.14065 -9.71247,9.35414 0,0.21372 16.34529,17.11807 36.30159,37.60279 19.95626,20.4848 36.30153,37.36114 36.30153,37.50973 0,0.14895 -3.94175,5.67796 -8.75082,12.28606 -6.77344,9.30735 -8.61757,12.17955 -8.07772,12.70492 0.38327,0.37305 5.07468,3.61746 10.38563,7.2134 5.31094,3.59596 9.79195,6.51834 9.95287,6.51537 0.16078,-0.002 0.94638,-0.93262 1.77902,-2.09424 0.8326,-1.16162 4.13619,-5.66034 7.30837,-10.00569 l 5.76982,-7.91145 6.29868,6.42225 6.29871,6.42225 2.78871,-2.46654 c 1.53621,-1.35583 6.09633,-5.46488 10.09708,-9.12145 l 7.26037,-6.60846 -7.54883,-7.72527 c -4.16173,-4.24516 -7.8611,-8.17826 -8.22194,-8.70262 -0.55067,-0.80027 7.50795,-12.18744 50.14907,-70.87758 27.94183,-38.45845 50.66013,-70.07444 50.53371,-70.27255 -0.38891,-0.60903 -20.7731,-14.27546 -20.96355,-14.05451 z"
       id="path6555"
       sodipodi:nodetypes="ssssssssssssssssssssssssscscscccsssscscccccccccccscc" />
  </g>
</svg>
