<?xml version="1.0" encoding="UTF-8" standalone="no"?>
<!-- Created with Inkscape (http://www.inkscape.org/) -->

<svg
   xmlns:dc="http://purl.org/dc/elements/1.1/"
   xmlns:cc="http://creativecommons.org/ns#"
   xmlns:rdf="http://www.w3.org/1999/02/22-rdf-syntax-ns#"
   xmlns:svg="http://www.w3.org/2000/svg"
   xmlns="http://www.w3.org/2000/svg"
   xmlns:sodipodi="http://sodipodi.sourceforge.net/DTD/sodipodi-0.dtd"
   xmlns:inkscape="http://www.inkscape.org/namespaces/inkscape"
   width="1280"
   height="1280"
   id="svg6645"
   version="1.1"
   inkscape:version="0.48.2 r9819"
   sodipodi:docname="EasyBus 2.svg"
   inkscape:export-filename="/Users/benoit/Desktop/EasyBus2-1024.png"
   inkscape:export-xdpi="72"
   inkscape:export-ydpi="72">
  <defs
     id="defs6647" />
  <sodipodi:namedview
     pagecolor="#ffffff"
     bordercolor="#666666"
     borderopacity="1.0"
     inkscape:pageopacity="0.0"
     inkscape:pageshadow="2"
     inkscape:zoom="0.035355341"
     inkscape:cx="678.19089"
     inkscape:cy="579.538"
     inkscape:document-units="pt"
     inkscape:current-layer="layer1"
     id="namedview6649"
     showgrid="false"
     inkscape:window-width="1301"
     inkscape:window-height="880"
     inkscape:window-x="39"
     inkscape:window-y="49"
     inkscape:window-maximized="0"
     units="pt"
     width="1024pt"
     fit-margin-top="0"
     fit-margin-left="0"
     fit-margin-right="0"
     fit-margin-bottom="0" />
  <metadata
     id="metadata6651">
    <rdf:RDF>
      <cc:Work
         rdf:about="">
        <dc:format>image/svg+xml</dc:format>
        <dc:type
           rdf:resource="http://purl.org/dc/dcmitype/StillImage" />
        <dc:title></dc:title>
      </cc:Work>
    </rdf:RDF>
  </metadata>
  <g
     inkscape:groupmode="layer"
     id="layer2"
     inkscape:label="Background">
    <rect
       style="fill:#45e7bb;fill-opacity:1;stroke:#45e7bb;stroke-width:2.24375057;stroke-miterlimit:4;stroke-opacity:1;stroke-dasharray:none"
       id="rect6831"
       width="1277.7562"
       height="1277.7562"
       x="0.88388395"
       y="-850.9884"
       inkscape:export-xdpi="214.74696"
       inkscape:export-ydpi="214.74696"
       transform="translate(0.2381165,852.11025)"
       sodipodi:insensitive="true" />
  </g>
  <g
     inkscape:label="Bus"
     inkscape:groupmode="layer"
     id="layer1"
     transform="translate(0.2381165,852.11025)">
    <g
       id="g3052"
       transform="matrix(6.0786694,0,0,-5.7778638,-949.85009,3491.853)" />
    <rect
       style="fill:#45e7bb;fill-opacity:1;stroke:#45e7bb;stroke-width:2.24399996;stroke-miterlimit:4;stroke-opacity:1;stroke-dasharray:none"
       id="rect6810"
       width="0.44701418"
       height="26.80332"
       x="887.18103"
       y="200.69955"
       transform="scale(1,-1)" />
    <rect
       style="fill:#45e7bb;fill-opacity:1;stroke:#45e7bb;stroke-width:2.24399996;stroke-miterlimit:4;stroke-opacity:1;stroke-dasharray:none"
       id="rect6810-1"
       width="0.44701418"
       height="26.80332"
       x="753.30029"
       y="200.69955"
       transform="scale(1,-1)" />
    <path
       inkscape:connector-curvature="0"
       style="fill:#000000;fill-opacity:1;stroke:#000000;stroke-width:2.24399996;stroke-miterlimit:4;stroke-dasharray:none"
       d="m 636.552,-643.64958 c -19.40584,-0.0812 -38.01143,0.82582 -53.94734,2.75297 -172.80139,20.89724 -315.2216,126.14436 -378.32056,279.55179 -43.86833,106.65327 -36.2148,237.24179 19.90705,340.033676 73.37498,134.392664 210.81868,223.227924 370.56466,239.591994 25.66547,2.62904 84.65227,0.55125 115.65059,-4.08777 104.71437,-15.6712 185.43427,-55.27708 264.22123,-129.639924 60.12487,-56.74879 104.58367,-135.764084 120.64897,-214.564876 47.4697,-232.84233 -115.59002,-459.48071 -363.67039,-505.46236 -28.09464,-5.20733 -62.71104,-8.04009 -95.05421,-8.1755 z m 4.73975,64.31944 c 95.5458,-0.41474 186.45847,31.35754 260.60175,91.59888 51.23247,41.6262 92.89309,101.44684 114.0132,163.7601 22.8562,67.43508 23.1157,154.96764 0.6895,221.32227 -45.03433,133.24773 -165.61641,229.99711 -315.41078,253.023 -28.38416,4.36315 -84.37149,5.36724 -111.25565,2.00225 C 494.56466,140.43971 401.97956,94.429852 342.16853,29.243379 299.82624,-16.904386 273.07964,-65.275885 254.78429,-128.59359 c -2.80949,-9.7232 -4.23419,-14.82543 -4.95515,-25.27987 -0.72093,-10.45445 -6.20298,-26.26101 -6.19746,-57.39271 0.009,-34.87652 5.65911,-53.70554 7.64743,-68.86438 1.98839,-15.15892 5.77708,-26.64772 12.98467,-46.84386 44.97683,-126.02809 159.50028,-220.95771 296.36556,-245.59845 9.8074,-1.76566 32.66601,-4.24532 50.84488,-5.58934 9.9687,-0.73702 19.93351,-1.12505 29.81753,-1.16794 z m 178.99142,104.5295 c -0.17636,0.20448 -39.45572,54.23061 -87.21198,120.12969 -47.75621,65.89904 -87.5736,120.63204 -88.50463,121.54783 -1.56353,1.53786 -6.06302,-2.8347 -58.85951,-57.14495 -31.44127,-32.34293 -59.33851,-60.97962 -62.04795,-63.56865 l -4.99833,-4.67172 -17.32176,16.0173 c -9.54969,8.81471 -17.40792,16.38536 -17.40792,16.76806 0,0.38311 29.2961,30.68554 65.0643,67.40608 35.76813,36.72069 65.06419,66.97291 65.06419,67.23927 0,0.267 -7.06491,10.17821 -15.68433,22.02377 -12.14021,16.68419 -15.4455,21.83284 -14.47791,22.77461 0.68695,0.66872 9.09548,6.48459 18.61444,12.93061 9.51894,6.44605 17.55037,11.68466 17.83879,11.67934 0.28817,-0.004 1.69622,-1.6718 3.18858,-3.7541 1.49229,-2.0823 7.41341,-10.14662 13.09899,-17.93602 l 10.3414,-14.18192 11.28929,11.51241 11.28934,11.51241 4.99828,-4.42148 c 2.75339,-2.43044 10.92661,-9.79624 18.09726,-16.35095 l 13.01295,-11.8462 -13.52996,-13.84818 c -7.45918,-7.6098 -14.08966,-14.6602 -14.7364,-15.60016 -0.98698,-1.43455 13.45669,-21.84699 89.88349,-127.05388 50.08088,-68.93992 90.79949,-125.61418 90.5729,-125.9693 -0.69705,-1.09174 -37.23217,-25.58994 -37.57352,-25.19387 z"
       id="path6555"
       sodipodi:nodetypes="ssssssssssssssssssssssssscscscccsssscscccccccccccscc" />
    <path
       sodipodi:type="arc"
       style="fill:#000000;fill-opacity:1;stroke:#000000;stroke-width:3.15007806;stroke-miterlimit:4;stroke-opacity:1;stroke-dasharray:none"
       id="path3870"
       sodipodi:cx="634.6283"
       sodipodi:cy="305.96045"
       sodipodi:rx="24.748735"
       sodipodi:ry="24.748735"
       d="m 659.37703,305.96045 a 24.748735,24.748735 0 1 1 -49.49747,0 24.748735,24.748735 0 1 1 49.49747,0 z"
       transform="matrix(0.71228387,0,0,0.71228387,193.97639,-764.03095)" />
    <path
       sodipodi:type="arc"
       style="fill:#000000;fill-opacity:1;stroke:#000000;stroke-width:1.05536997;stroke-miterlimit:4;stroke-opacity:1;stroke-dasharray:none"
       id="path3971"
       sodipodi:cx="635.51221"
       sodipodi:cy="938.82098"
       sodipodi:rx="9.7227173"
       sodipodi:ry="7.0710673"
       d="m 645.23492,938.82098 a 9.7227173,7.0710673 0 1 1 -19.44543,0 9.7227173,7.0710673 0 1 1 19.44543,0 z"
       transform="matrix(-1.8130862,0,0,2.4929935,1798.2503,-2214.8236)" />
    <path
       sodipodi:type="arc"
       style="fill:#000000;fill-opacity:1;stroke:#000000;stroke-width:2.75114799;stroke-miterlimit:4;stroke-opacity:1;stroke-dasharray:none"
       id="path3973"
       sodipodi:cx="334.99182"
       sodipodi:cy="657.74609"
       sodipodi:rx="20.329319"
       sodipodi:ry="22.980968"
       d="m 355.32114,657.74609 a 20.329319,22.980968 0 1 1 -40.65864,0 20.329319,22.980968 0 1 1 40.65864,0 z"
       transform="matrix(0.86712816,0,0,0.76707494,-14.996871,-722.90079)" />
    <path
       sodipodi:type="arc"
       style="fill:#000000;fill-opacity:1;stroke:#000000;stroke-width:2.13755345;stroke-miterlimit:4;stroke-opacity:1;stroke-dasharray:none"
       id="path3975"
       sodipodi:cx="969.62012"
       sodipodi:cy="655.09442"
       sodipodi:rx="16.793785"
       sodipodi:ry="16.793785"
       d="m 986.4139,655.09442 a 16.793785,16.793785 0 1 1 -33.58757,0 16.793785,16.793785 0 1 1 33.58757,0 z"
       transform="matrix(1.0496815,0,0,1.0496815,-17.523891,-906.00072)" />
    <path
       sodipodi:type="arc"
       style="fill:#000000;fill-opacity:1;stroke:#000000;stroke-width:2.04371524;stroke-miterlimit:4;stroke-opacity:1;stroke-dasharray:none"
       id="path3977"
       sodipodi:cx="498.51025"
       sodipodi:cy="336.89636"
       sodipodi:rx="19.445435"
       sodipodi:ry="13.258251"
       d="m 517.95569,336.89636 a 19.445435,13.258251 0 1 1 -38.89087,0 19.445435,13.258251 0 1 1 38.89087,0 z"
       transform="matrix(0.90654312,0,0,1.3295965,3.8751545,-951.6101)" />
    <path
       sodipodi:type="arc"
       style="fill:#000000;fill-opacity:1;stroke:#000000;stroke-width:1.74288595;stroke-miterlimit:4;stroke-opacity:1;stroke-dasharray:none"
       id="path3979"
       sodipodi:cx="769.86249"
       sodipodi:cy="325.40588"
       sodipodi:rx="13.258251"
       sodipodi:ry="14.142135"
       d="m 783.12074,325.40588 a 13.258251,14.142135 0 1 1 -26.5165,0 13.258251,14.142135 0 1 1 26.5165,0 z"
       transform="matrix(1.3295965,0,0,1.2464968,-198.34702,-903.98794)" />
    <path
       sodipodi:type="arc"
       style="fill:#000000;fill-opacity:1;stroke:#000000;stroke-width:2.01251149;stroke-miterlimit:4;stroke-opacity:1;stroke-dasharray:none"
       id="path3981"
       sodipodi:cx="866.20575"
       sodipodi:cy="374.90335"
       sodipodi:rx="14.142135"
       sodipodi:ry="17.67767"
       d="m 880.34788,374.90335 a 14.142135,17.67767 0 1 1 -28.28427,0 14.142135,17.67767 0 1 1 28.28427,0 z"
       transform="matrix(1.2464967,0,0,0.99719733,-125.41621,-748.47946)" />
    <path
       sodipodi:type="arc"
       style="fill:#000000;fill-opacity:1;stroke:#000000;stroke-width:1.90923607;stroke-miterlimit:4;stroke-opacity:1;stroke-dasharray:none"
       id="path3983"
       sodipodi:cx="942.21973"
       sodipodi:cy="820.38062"
       sodipodi:rx="14.142135"
       sodipodi:ry="15.909902"
       d="m 956.36186,820.38062 a 14.142135,15.909902 0 1 1 -28.28427,0 14.142135,15.909902 0 1 1 28.28427,0 z"
       transform="matrix(1.2464967,0,0,1.1079971,-216.63185,-956.5693)" />
    <path
       sodipodi:type="arc"
       style="fill:#000000;fill-opacity:1;stroke:#000000;stroke-width:2.01251149;stroke-miterlimit:4;stroke-opacity:1;stroke-dasharray:none"
       id="path3985"
       sodipodi:cx="799.03064"
       sodipodi:cy="931.74994"
       sodipodi:rx="17.67767"
       sodipodi:ry="14.142135"
       d="m 816.70831,931.74994 a 17.67767,14.142135 0 1 1 -35.35534,0 17.67767,14.142135 0 1 1 35.35534,0 z"
       transform="matrix(0.99719733,0,0,1.2464967,28.468264,-1081.734)" />
    <path
       sodipodi:type="arc"
       style="fill:#000000;fill-opacity:1;stroke:#000000;stroke-width:2.6143291;stroke-miterlimit:4;stroke-opacity:1;stroke-dasharray:none"
       id="path3987"
       sodipodi:cx="474.64542"
       sodipodi:cy="945.89209"
       sodipodi:rx="23.864853"
       sodipodi:ry="17.67767"
       d="m 498.51027,945.89209 a 23.864853,17.67767 0 1 1 -47.72971,0 23.864853,17.67767 0 1 1 47.72971,0 z"
       transform="matrix(0.73866472,0,0,0.99719733,119.33451,-861.78406)" />
    <path
       sodipodi:type="arc"
       style="fill:#000000;fill-opacity:1;stroke:#000000;stroke-width:3.0354917;stroke-miterlimit:4;stroke-opacity:1;stroke-dasharray:none"
       id="path3989"
       sodipodi:cx="357.0889"
       sodipodi:cy="830.98724"
       sodipodi:rx="22.980968"
       sodipodi:ry="24.748735"
       d="m 380.06987,830.98724 a 22.980968,24.748735 0 1 1 -45.96194,0 22.980968,24.748735 0 1 1 45.96194,0 z"
       transform="matrix(0.76707494,0,0,0.71228387,58.138565,-637.72101)" />
    <path
       sodipodi:type="arc"
       style="fill:#000000;fill-opacity:1;stroke:#000000;stroke-width:2.74193144;stroke-miterlimit:4;stroke-opacity:1;stroke-dasharray:none"
       id="path3991"
       sodipodi:cx="321.73358"
       sodipodi:cy="536.65405"
       sodipodi:rx="19.445435"
       sodipodi:ry="23.864853"
       d="m 341.17902,536.65405 a 19.445435,23.864853 0 1 1 -38.89087,0 19.445435,23.864853 0 1 1 38.89087,0 z"
       transform="matrix(0.90654312,0,0,0.73866472,29.780557,-769.2665)" />
  </g>
</svg>
